<svg xmlns="http://www.w3.org/2000/svg" version="1.1" xmlns:xlink="http://www.w3.org/1999/xlink" width="512" height="512" x="0" y="0" viewBox="0 0 512 512" style="enable-background:new 0 0 512 512" xml:space="preserve" class=""><g><path d="M505 31.966H7c-3.86 0-7 3.14-7 7v382.94c0 3.86 3.14 7 7 7h105.92a32.11 32.11 0 0 1 7.42-11.53l2.48-2.48H14.01V95.576h483.98v319.32H393.14a6.988 6.988 0 0 1-.31 7.48c-1.54 2.22-3.13 4.4-4.78 6.53H505c3.86 0 7-3.14 7-7V38.966c0-3.86-3.14-7-7-7zM38.98 70.776v-14h16.5v14zm42.77 0v-14h16.47v14zm42.75 0v-14H141v14zm348.55 0H232.56v-14h240.49zM89.57 325.236c-.01.79-.02 1.57-.02 2.36 0 3.88.14 7.77.41 11.65H45.98c-3.87 0-7-3.14-7-7v-204.69c0-3.87 3.13-7.01 7-7.01h420.04c3.87 0 7 3.14 7 7.01v204.69c0 3.86-3.13 7-7 7h-43.98c.28-3.89.41-7.78.41-11.65 0-.79-.01-1.57-.02-2.36-.13-9.13-1-18.33-2.61-27.36-.6-3.34-3.5-5.77-6.89-5.77h-26.22a134.323 134.323 0 0 0-13.18-31.84l18.5-18.52a6.992 6.992 0 0 0 .8-8.93c-11.39-16.47-25.54-30.63-42.04-42.08a7.018 7.018 0 0 0-8.95.8l-18.52 18.53a133.173 133.173 0 0 0-31.83-13.19v-26.21a7.01 7.01 0 0 0-5.75-6.89c-19.32-3.5-40.16-3.5-59.48 0a7.01 7.01 0 0 0-5.75 6.89v26.21c-11.11 3-21.78 7.42-31.83 13.19l-18.52-18.53a7.006 7.006 0 0 0-8.95-.79 166.884 166.884 0 0 0-42.04 42.06 7.003 7.003 0 0 0 .8 8.94l18.53 18.53a133.955 133.955 0 0 0-13.21 31.83H99.1a7.01 7.01 0 0 0-6.89 5.75c-1.62 9-2.51 18.19-2.64 27.38zm144.58 50.24-77.83 77.87c-7.19 7.19-18.89 7.19-26.07 0-3.47-3.46-5.37-8.09-5.37-13.03 0-4.95 1.9-9.58 5.37-13.04l77.84-77.87a7.01 7.01 0 0 0 1.71-7.09c-1.51-4.69-2.27-9.65-2.27-14.72 0-26.17 20.81-47.56 46.74-48.47l-9.26 9.25c-13.84 13.84-13.84 36.36 0 50.21 6.69 6.68 15.6 10.36 25.1 10.36h.03c9.5-.01 18.4-3.69 25.05-10.36l9.28-9.28c-.9 25.94-22.3 46.76-48.47 46.76-5.01 0-9.97-.78-14.77-2.31a7.029 7.029 0 0 0-7.08 1.72zm124.64 16.78a7.001 7.001 0 0 0 .96 8.68l18.16 18.19a152.357 152.357 0 0 1-30.38 30.38l-18.18-18.18a6.99 6.99 0 0 0-8.69-.97 120.399 120.399 0 0 1-37.72 15.64 7.006 7.006 0 0 0-5.45 6.83v25.7c-14.2 2.01-28.78 2.01-42.98 0v-25.7c0-3.27-2.26-6.1-5.45-6.83-10.6-2.4-21.58-7.01-32.13-13.47l18.77-18.78 10.64-10.64c9.38 3.72 19.32 5.59 29.66 5.59 44.73 0 81.13-36.38 81.13-81.1 0-44.74-36.4-81.13-81.13-81.13-44.72 0-81.1 36.39-81.1 81.13 0 10.33 1.87 20.26 5.57 29.64l-10.64 10.63-18.77 18.78c-6.44-10.54-11.05-21.51-13.47-32.12a6.995 6.995 0 0 0-6.82-5.45h-25.71a152.99 152.99 0 0 1-1.42-16.43c-.06-1.68-.09-3.37-.09-5.05 0-.79.01-1.57.02-2.36.1-6.4.6-12.81 1.49-19.13h25.71c3.27 0 6.1-2.26 6.82-5.45 3.04-13.41 8.31-26.1 15.65-37.72a7.003 7.003 0 0 0-.97-8.69l-18.18-18.18a152.77 152.77 0 0 1 30.38-30.41l18.18 18.18a6.99 6.99 0 0 0 8.68.97c11.69-7.36 24.38-12.62 37.72-15.62a6.998 6.998 0 0 0 5.46-6.83v-25.72c14.07-1.98 28.91-1.98 42.98 0v25.72c0 3.28 2.27 6.11 5.46 6.83 13.38 3.01 26.07 8.27 37.71 15.62a6.99 6.99 0 0 0 8.69-.97l18.18-18.18a152.032 152.032 0 0 1 30.39 30.41l-18.17 18.18a7.002 7.002 0 0 0-.96 8.69c7.31 11.57 12.57 24.27 15.62 37.72a6.986 6.986 0 0 0 6.82 5.45h25.72c.88 6.35 1.38 12.75 1.48 19.13.01.79.02 1.57.02 2.36 0 1.34-.02 2.69-.06 4.03-.15 5.82-.64 11.66-1.44 17.45h-25.72c-3.26 0-6.1 2.27-6.82 5.45a120.864 120.864 0 0 1-15.62 37.73z" fill="#794bfb" opacity="1" data-original="#000000" class=""></path></g></svg>